<svg xmlns="http://www.w3.org/2000/svg" xmlns:xlink="http://www.w3.org/1999/xlink" width="500" zoomAndPan="magnify" viewBox="0 0 375 374.999991" height="500" preserveAspectRatio="xMidYMid meet" version="1.0"><defs><g/><clipPath id="51b7e7176a"><path d="M 102.667969 109.164062 L 275.128906 109.164062 L 275.128906 286.914062 L 102.667969 286.914062 Z M 102.667969 109.164062 " clip-rule="nonzero"/></clipPath><clipPath id="5af6f87d94"><path d="M 149.410156 217.195312 L 157.519531 217.195312 L 157.519531 225.304688 L 149.410156 225.304688 Z M 149.410156 217.195312 " clip-rule="nonzero"/></clipPath><clipPath id="2b06b13c74"><path d="M 153.464844 217.195312 C 151.226562 217.195312 149.410156 219.007812 149.410156 221.25 C 149.410156 223.488281 151.226562 225.304688 153.464844 225.304688 C 155.703125 225.304688 157.519531 223.488281 157.519531 221.25 C 157.519531 219.007812 155.703125 217.195312 153.464844 217.195312 Z M 153.464844 217.195312 " clip-rule="nonzero"/></clipPath></defs><rect x="-37.5" width="450" fill="#ffffff" y="-37.499999" height="449.999989" fill-opacity="1"/><rect x="-37.5" width="450" fill="#ffffff" y="-37.499999" height="449.999989" fill-opacity="1"/><g clip-path="url(#51b7e7176a)"><path stroke-linecap="butt" transform="matrix(0.75, 0, 0, 0.75, 102.667812, 109.165262)" fill="none" stroke-linejoin="miter" d="M 0.000208789 -0.00159991 L 229.948141 -0.00159991 L 229.948141 237.185916 L 0.000208789 237.185916 Z M 0.000208789 -0.00159991 " stroke="#ad9551" stroke-width="6" stroke-opacity="1" stroke-miterlimit="4"/></g><g fill="#000000" fill-opacity="1"><g transform="translate(110.3375, 263.323723)"><g><path d="M 53.203125 -22.402344 L 56.082031 -25.28125 L 53.203125 -28.164062 L 50.320312 -25.28125 Z M 59.777344 -20.695312 L 46.585938 -20.695312 C 45.492188 -20.695312 44.558594 -19.804688 44.558594 -18.667969 L 44.558594 -7.46875 L 56.082031 -7.46875 L 56.082031 -5.761719 L 6.613281 -5.761719 L 6.613281 -7.46875 L 42.855469 -7.46875 L 42.855469 -13.230469 L 2.882812 -13.230469 C 1.746094 -13.230469 0.851562 -12.335938 0.851562 -11.199219 L 0.851562 0 L 61.804688 0 L 61.804688 -18.667969 C 61.804688 -19.804688 60.914062 -20.695312 59.777344 -20.695312 Z M 56.082031 -13.230469 L 50.320312 -13.230469 L 50.320312 -14.972656 L 56.082031 -14.972656 Z M 56.082031 -13.230469 "/></g></g></g><g fill="#000000" fill-opacity="1"><g transform="translate(172.986998, 263.323723)"><g><path d="M 28.773438 -11.484375 L 28.773438 -5.761719 L -2.839844 -5.761719 L -2.839844 0 L 32.464844 0 C 33.640625 0 34.535156 -0.894531 34.535156 -2.070312 L 34.535156 -11.484375 Z M 9.535156 4.585938 L 12.417969 7.46875 L 15.300781 4.585938 L 12.417969 1.703125 Z M 16.433594 4.585938 L 19.316406 7.46875 L 22.199219 4.585938 L 19.316406 1.703125 Z M 16.433594 4.585938 "/></g></g></g><g fill="#000000" fill-opacity="1"><g transform="translate(207.517254, 263.323723)"><g><path d="M -2.273438 -46.019531 L 1.703125 -46.019531 L 1.703125 -5.761719 L -2.839844 -5.761719 L -2.839844 0 L 5.398438 0 C 6.535156 0 7.425781 -0.894531 7.425781 -2.027344 L 7.425781 -56.367188 Z M -2.273438 -46.019531 "/></g></g></g><g fill="#000000" fill-opacity="1"><g transform="translate(215.794776, 263.323723)"><g><path d="M 0.851562 -56.367188 L 0.851562 0 L 6.613281 0 L 6.613281 -46.019531 L 10.511719 -46.019531 Z M 0.851562 -56.367188 "/></g></g></g><g fill="#000000" fill-opacity="1"><g transform="translate(223.260775, 263.323723)"><g><path d="M 18.140625 -13.230469 L 2.882812 -13.230469 C 1.746094 -13.230469 0.851562 -12.335938 0.851562 -11.199219 L 0.851562 0 L 12.378906 0 L 12.378906 1.703125 L 0.851562 1.703125 L 0.851562 7.46875 L 15.257812 7.46875 C 16.839844 7.46875 18.140625 6.167969 18.140625 4.585938 Z M 12.378906 -5.761719 L 6.613281 -5.761719 L 6.613281 -7.507812 L 12.378906 -7.507812 Z M 12.378906 -5.761719 "/></g></g></g><g fill="#000000" fill-opacity="1"><g transform="translate(241.398287, 263.323723)"><g><path d="M 16.636719 -13.230469 L 16.636719 -5.761719 L 14.933594 -5.761719 L 14.933594 -13.230469 L 9.171875 -13.230469 L 9.171875 -5.761719 L 7.46875 -5.761719 L 7.46875 -13.230469 L 1.703125 -13.230469 L 1.703125 -5.761719 L -2.839844 -5.761719 L -2.839844 0 L 20.371094 0 C 21.507812 0 22.402344 -0.933594 22.402344 -2.027344 L 22.402344 -13.230469 Z M 16.636719 -13.230469 "/></g></g></g><g fill="#000000" fill-opacity="1"><g transform="translate(109.979297, 162.90271)"><g><path d="M 52.355469 -11.058594 L 65.160156 -11.058594 C 67.503906 -11.058594 69.429688 -12.984375 69.429688 -15.328125 L 69.429688 -19.597656 L 26.808594 -19.597656 L 26.808594 -15.328125 C 26.808594 -12.984375 28.734375 -11.058594 31.078125 -11.058594 L 43.882812 -11.058594 L 43.882812 -8.535156 L 4.269531 -8.535156 C 2.585938 -8.535156 1.261719 -7.214844 1.261719 -5.53125 L 1.261719 8.476562 C 1.503906 9.976562 2.703125 11.058594 4.269531 11.058594 L 69.429688 11.058594 L 69.429688 2.523438 L 9.796875 2.523438 L 9.796875 0 L 69.429688 0 L 69.429688 -8.535156 L 52.355469 -8.535156 Z M 52.355469 -11.058594 "/></g></g></g><g fill="#000000" fill-opacity="1"><g transform="translate(179.40476, 162.90271)"><g><path d="M 42.617188 -17.011719 L 42.617188 -8.535156 L -4.207031 -8.535156 L -4.207031 0 L 48.089844 0 C 49.832031 0 51.15625 -1.324219 51.15625 -3.066406 L 51.15625 -17.011719 Z M 19.234375 6.730469 L 23.503906 11 L 27.769531 6.730469 L 23.503906 2.464844 Z M 19.234375 6.730469 "/></g></g></g><g fill="#000000" fill-opacity="1"><g transform="translate(231.819488, 162.90271)"><g><path d="M 1.261719 -17.011719 L 1.261719 2.523438 L -9.796875 2.523438 L -9.796875 11.058594 L 5.53125 11.058594 C 7.875 11.058594 9.796875 9.136719 9.796875 6.792969 L 9.796875 -17.011719 Z M 1.261719 -17.011719 "/></g></g></g><g fill="#000000" fill-opacity="1"><g transform="translate(241.617199, 162.90271)"><g><path d="M 19.117188 -30.65625 L 2.523438 -30.65625 L 2.523438 -8.535156 L -4.207031 -8.535156 L -4.207031 0 L 7.996094 0 C 9.679688 0 11 -1.324219 11 -3.003906 L 11 -11.058594 L 22.121094 -11.058594 L 22.121094 -27.652344 C 22.121094 -29.335938 20.738281 -30.65625 19.117188 -30.65625 Z M 13.585938 -19.597656 L 11 -19.597656 L 11 -22.179688 L 13.585938 -22.179688 Z M 13.585938 -19.597656 "/></g></g></g><g fill="#000000" fill-opacity="1"><g transform="translate(250.623485, 150.349608)"><g><path d="M -8.867188 -25.699219 L 5.378906 -25.699219 C 7.332031 -25.699219 8.867188 -27.234375 8.867188 -29.191406 L 8.867188 -32.125 C 8.867188 -34.007812 7.332031 -35.617188 5.378906 -35.617188 L 2.445312 -35.617188 C 0.558594 -35.617188 -1.046875 -34.007812 -1.046875 -32.125 L -1.046875 -29.46875 L -8.867188 -29.46875 Z M 2.515625 -29.46875 L 2.515625 -32.054688 L 5.308594 -32.054688 L 5.308594 -29.46875 Z M 2.515625 -29.46875 "/></g></g></g><path stroke-linecap="round" transform="matrix(0.714774, -0.227153, 0.227153, 0.714774, 242.268329, 223.216202)" fill="none" stroke-linejoin="miter" d="M 0.498341 0.500767 L 19.964741 0.500725 " stroke="#ad9551" stroke-width="1" stroke-opacity="1" stroke-miterlimit="4"/><g clip-path="url(#5af6f87d94)"><g clip-path="url(#2b06b13c74)"><path stroke-linecap="butt" transform="matrix(0.75, 0, 0, 0.75, 149.410365, 217.193746)" fill="none" stroke-linejoin="miter" d="M 5.405972 0.00208902 C 2.421597 0.00208902 -0.000278452 2.418756 -0.000278452 5.408339 C -0.000278452 8.392715 2.421597 10.81459 5.405972 10.81459 C 8.390347 10.81459 10.812222 8.392715 10.812222 5.408339 C 10.812222 2.418756 8.390347 0.00208902 5.405972 0.00208902 Z M 5.405972 0.00208902 " stroke="#ad9551" stroke-width="2" stroke-opacity="1" stroke-miterlimit="4"/></g></g></svg>