<svg xmlns="http://www.w3.org/2000/svg" xmlns:xlink="http://www.w3.org/1999/xlink" width="500" zoomAndPan="magnify" viewBox="0 0 375 374.999991" height="500" preserveAspectRatio="xMidYMid meet" version="1.0"><defs><g/><clipPath id="2d8b2d687b"><path d="M 102.667969 79.824219 L 275.128906 79.824219 L 275.128906 257.574219 L 102.667969 257.574219 Z M 102.667969 79.824219 " clip-rule="nonzero"/></clipPath><clipPath id="4a592499ce"><path d="M 149.410156 187.851562 L 157.519531 187.851562 L 157.519531 195.960938 L 149.410156 195.960938 Z M 149.410156 187.851562 " clip-rule="nonzero"/></clipPath><clipPath id="75f1ff016f"><path d="M 153.464844 187.851562 C 151.226562 187.851562 149.410156 189.667969 149.410156 191.90625 C 149.410156 194.148438 151.226562 195.960938 153.464844 195.960938 C 155.703125 195.960938 157.519531 194.148438 157.519531 191.90625 C 157.519531 189.667969 155.703125 187.851562 153.464844 187.851562 Z M 153.464844 187.851562 " clip-rule="nonzero"/></clipPath></defs><g clip-path="url(#2d8b2d687b)"><path stroke-linecap="butt" transform="matrix(0.75, 0, 0, 0.75, 102.667812, 79.824962)" fill="none" stroke-linejoin="miter" d="M 0.000208789 -0.000990944 L 229.948141 -0.000990944 L 229.948141 237.186525 L 0.000208789 237.186525 Z M 0.000208789 -0.000990944 " stroke="#ad9551" stroke-width="2" stroke-opacity="1" stroke-miterlimit="4"/></g><g fill="#000000" fill-opacity="1"><g transform="translate(110.332987, 233.6949)"><g><path d="M 53.203125 -22.402344 L 56.082031 -25.28125 L 53.203125 -28.164062 L 50.320312 -25.28125 Z M 59.777344 -20.695312 L 46.585938 -20.695312 C 45.492188 -20.695312 44.558594 -19.804688 44.558594 -18.667969 L 44.558594 -7.46875 L 56.082031 -7.46875 L 56.082031 -5.761719 L 6.613281 -5.761719 L 6.613281 -7.46875 L 42.851562 -7.46875 L 42.851562 -13.230469 L 2.882812 -13.230469 C 1.746094 -13.230469 0.851562 -12.335938 0.851562 -11.199219 L 0.851562 0 L 61.804688 0 L 61.804688 -18.667969 C 61.804688 -19.804688 60.910156 -20.695312 59.777344 -20.695312 Z M 56.082031 -13.230469 L 50.320312 -13.230469 L 50.320312 -14.972656 L 56.082031 -14.972656 Z M 56.082031 -13.230469 "/></g></g></g><g fill="#000000" fill-opacity="1"><g transform="translate(172.987696, 233.6949)"><g><path d="M 28.773438 -11.484375 L 28.773438 -5.761719 L -2.839844 -5.761719 L -2.839844 0 L 32.464844 0 C 33.640625 0 34.535156 -0.894531 34.535156 -2.070312 L 34.535156 -11.484375 Z M 9.535156 4.585938 L 12.417969 7.46875 L 15.300781 4.585938 L 12.417969 1.703125 Z M 16.433594 4.585938 L 19.316406 7.46875 L 22.199219 4.585938 L 19.316406 1.703125 Z M 16.433594 4.585938 "/></g></g></g><g fill="#000000" fill-opacity="1"><g transform="translate(207.520833, 233.6949)"><g><path d="M -2.273438 -46.019531 L 1.703125 -46.019531 L 1.703125 -5.761719 L -2.839844 -5.761719 L -2.839844 0 L 5.398438 0 C 6.535156 0 7.425781 -0.894531 7.425781 -2.027344 L 7.425781 -56.367188 Z M -2.273438 -46.019531 "/></g></g></g><g fill="#000000" fill-opacity="1"><g transform="translate(215.799045, 233.6949)"><g><path d="M 0.851562 -56.367188 L 0.851562 0 L 6.613281 0 L 6.613281 -46.019531 L 10.511719 -46.019531 Z M 0.851562 -56.367188 "/></g></g></g><g fill="#000000" fill-opacity="1"><g transform="translate(223.265675, 233.6949)"><g><path d="M 18.140625 -13.230469 L 2.882812 -13.230469 C 1.746094 -13.230469 0.851562 -12.335938 0.851562 -11.199219 L 0.851562 0 L 12.378906 0 L 12.378906 1.703125 L 0.851562 1.703125 L 0.851562 7.46875 L 15.257812 7.46875 C 16.839844 7.46875 18.140625 6.167969 18.140625 4.585938 Z M 12.378906 -5.761719 L 6.613281 -5.761719 L 6.613281 -7.507812 L 12.378906 -7.507812 Z M 12.378906 -5.761719 "/></g></g></g><g fill="#000000" fill-opacity="1"><g transform="translate(241.404707, 233.6949)"><g><path d="M 16.636719 -13.230469 L 16.636719 -5.761719 L 14.933594 -5.761719 L 14.933594 -13.230469 L 9.171875 -13.230469 L 9.171875 -5.761719 L 7.46875 -5.761719 L 7.46875 -13.230469 L 1.703125 -13.230469 L 1.703125 -5.761719 L -2.839844 -5.761719 L -2.839844 0 L 20.371094 0 C 21.507812 0 22.402344 -0.933594 22.402344 -2.027344 L 22.402344 -13.230469 Z M 16.636719 -13.230469 "/></g></g></g><g fill="#000000" fill-opacity="1"><g transform="translate(109.979297, 133.562405)"><g><path d="M 52.355469 -11.058594 L 65.160156 -11.058594 C 67.503906 -11.058594 69.429688 -12.984375 69.429688 -15.328125 L 69.429688 -19.597656 L 26.808594 -19.597656 L 26.808594 -15.328125 C 26.808594 -12.984375 28.734375 -11.058594 31.078125 -11.058594 L 43.882812 -11.058594 L 43.882812 -8.535156 L 4.269531 -8.535156 C 2.585938 -8.535156 1.261719 -7.214844 1.261719 -5.53125 L 1.261719 8.476562 C 1.503906 9.976562 2.703125 11.058594 4.269531 11.058594 L 69.429688 11.058594 L 69.429688 2.523438 L 9.796875 2.523438 L 9.796875 0 L 69.429688 0 L 69.429688 -8.535156 L 52.355469 -8.535156 Z M 52.355469 -11.058594 "/></g></g></g><g fill="#000000" fill-opacity="1"><g transform="translate(179.40476, 133.562405)"><g><path d="M 42.617188 -17.011719 L 42.617188 -8.535156 L -4.207031 -8.535156 L -4.207031 0 L 48.089844 0 C 49.832031 0 51.15625 -1.324219 51.15625 -3.066406 L 51.15625 -17.011719 Z M 19.234375 6.730469 L 23.503906 11 L 27.769531 6.730469 L 23.503906 2.464844 Z M 19.234375 6.730469 "/></g></g></g><g fill="#000000" fill-opacity="1"><g transform="translate(231.819488, 133.562405)"><g><path d="M 1.261719 -17.011719 L 1.261719 2.523438 L -9.796875 2.523438 L -9.796875 11.058594 L 5.53125 11.058594 C 7.875 11.058594 9.796875 9.136719 9.796875 6.792969 L 9.796875 -17.011719 Z M 1.261719 -17.011719 "/></g></g></g><g fill="#000000" fill-opacity="1"><g transform="translate(241.617199, 133.562405)"><g><path d="M 19.117188 -30.65625 L 2.523438 -30.65625 L 2.523438 -8.535156 L -4.207031 -8.535156 L -4.207031 0 L 7.996094 0 C 9.679688 0 11 -1.324219 11 -3.003906 L 11 -11.058594 L 22.121094 -11.058594 L 22.121094 -27.652344 C 22.121094 -29.335938 20.738281 -30.65625 19.117188 -30.65625 Z M 13.585938 -19.597656 L 11 -19.597656 L 11 -22.179688 L 13.585938 -22.179688 Z M 13.585938 -19.597656 "/></g></g></g><g fill="#000000" fill-opacity="1"><g transform="translate(246.873486, 120.259306)"><g><path d="M -8.867188 -25.699219 L 5.378906 -25.699219 C 7.332031 -25.699219 8.867188 -27.234375 8.867188 -29.191406 L 8.867188 -32.125 C 8.867188 -34.007812 7.332031 -35.617188 5.378906 -35.617188 L 2.445312 -35.617188 C 0.558594 -35.617188 -1.046875 -34.007812 -1.046875 -32.125 L -1.046875 -29.46875 L -8.867188 -29.46875 Z M 2.515625 -29.46875 L 2.515625 -32.054688 L 5.308594 -32.054688 L 5.308594 -29.46875 Z M 2.515625 -29.46875 "/></g></g></g><path stroke-linecap="round" transform="matrix(0.714774, -0.227153, 0.227153, 0.714774, 242.268329, 193.875894)" fill="none" stroke-linejoin="miter" d="M 0.498154 0.501356 L 19.964554 0.501314 " stroke="#ad9551" stroke-width="1" stroke-opacity="1" stroke-miterlimit="4"/><g clip-path="url(#4a592499ce)"><g clip-path="url(#75f1ff016f)"><path stroke-linecap="butt" transform="matrix(0.75, 0, 0, 0.75, 149.410365, 187.85344)" fill="none" stroke-linejoin="miter" d="M 5.405972 -0.00250395 C 2.421597 -0.00250395 -0.000278452 2.419371 -0.000278452 5.403746 C -0.000278452 8.39333 2.421597 10.809997 5.405972 10.809997 C 8.390347 10.809997 10.812222 8.39333 10.812222 5.403746 C 10.812222 2.419371 8.390347 -0.00250395 5.405972 -0.00250395 Z M 5.405972 -0.00250395 " stroke="#ad9551" stroke-width="2" stroke-opacity="1" stroke-miterlimit="4"/></g></g></svg>