<svg xmlns="http://www.w3.org/2000/svg" xmlns:xlink="http://www.w3.org/1999/xlink" width="500" zoomAndPan="magnify" viewBox="0 0 375 374.999991" height="500" preserveAspectRatio="xMidYMid meet" version="1.0"><defs><g/></defs><g fill="#f1efe7" fill-opacity="1"><g transform="translate(112.705448, 175.638965)"><g><path d="M 28.695312 -6.0625 L 35.710938 -6.0625 C 36.996094 -6.0625 38.050781 -7.117188 38.050781 -8.402344 L 38.050781 -10.738281 L 14.695312 -10.738281 L 14.695312 -8.402344 C 14.695312 -7.117188 15.746094 -6.0625 17.03125 -6.0625 L 24.050781 -6.0625 L 24.050781 -4.679688 L 2.339844 -4.679688 C 1.417969 -4.679688 0.691406 -3.953125 0.691406 -3.03125 L 0.691406 4.644531 C 0.824219 5.46875 1.484375 6.0625 2.339844 6.0625 L 38.050781 6.0625 L 38.050781 1.382812 L 5.371094 1.382812 L 5.371094 0 L 38.050781 0 L 38.050781 -4.679688 L 28.695312 -4.679688 Z M 28.695312 -6.0625 "/></g></g></g><g fill="#f1efe7" fill-opacity="1"><g transform="translate(150.755788, 175.638965)"><g><path d="M -2.304688 0 L 4.679688 0 L 4.679688 -4.679688 L -2.304688 -4.679688 Z M -2.304688 0 "/></g></g></g><g fill="#f1efe7" fill-opacity="1"><g transform="translate(155.43384, 175.638965)"><g><path d="M -2.304688 0 L 4.679688 0 L 4.679688 -4.679688 L -2.304688 -4.679688 Z M -2.304688 0 "/></g></g></g><g fill="#f1efe7" fill-opacity="1"><g transform="translate(160.111892, 175.638965)"><g><path d="M -2.304688 0 L 4.679688 0 L 4.679688 -4.679688 L -2.304688 -4.679688 Z M -2.304688 0 "/></g></g></g><g fill="#f1efe7" fill-opacity="1"><g transform="translate(164.789944, 175.638965)"><g><path d="M -2.304688 0 L 4.679688 0 L 4.679688 -4.679688 L -2.304688 -4.679688 Z M -2.304688 0 "/></g></g></g><g fill="#f1efe7" fill-opacity="1"><g transform="translate(169.467996, 175.638965)"><g><path d="M 23.359375 -9.324219 L 23.359375 -4.679688 L -2.304688 -4.679688 L -2.304688 0 L 26.355469 0 C 27.3125 0 28.035156 -0.726562 28.035156 -1.679688 L 28.035156 -9.324219 Z M 10.542969 3.691406 L 12.882812 6.027344 L 15.21875 3.691406 L 12.882812 1.351562 Z M 10.542969 3.691406 "/></g></g></g><g fill="#f1efe7" fill-opacity="1"><g transform="translate(198.195183, 175.638965)"><g><path d="M 0.691406 -9.324219 L 0.691406 1.382812 L -5.371094 1.382812 L -5.371094 6.0625 L 3.03125 6.0625 C 4.316406 6.0625 5.371094 5.007812 5.371094 3.722656 L 5.371094 -9.324219 Z M 0.691406 -9.324219 "/></g></g></g><g fill="#f1efe7" fill-opacity="1"><g transform="translate(203.56506, 175.638965)"><g><path d="M 10.476562 -16.800781 L 1.382812 -16.800781 L 1.382812 -4.679688 L -2.304688 -4.679688 L -2.304688 0 L 4.382812 0 C 5.304688 0 6.027344 -0.726562 6.027344 -1.648438 L 6.027344 -6.0625 L 12.125 -6.0625 L 12.125 -15.15625 C 12.125 -16.078125 11.367188 -16.800781 10.476562 -16.800781 Z M 7.445312 -10.738281 L 6.027344 -10.738281 L 6.027344 -12.15625 L 7.445312 -12.15625 Z M 7.445312 -10.738281 "/></g></g></g><g fill="#f1efe7" fill-opacity="1"><g transform="translate(216.38517, 175.638965)"><g/></g></g><g fill="#f1efe7" fill-opacity="1"><g transform="translate(220.074897, 175.638965)"><g/></g></g><g fill="#f1efe7" fill-opacity="1"><g transform="translate(223.764624, 175.638965)"><g/></g></g><g fill="#f1efe7" fill-opacity="1"><g transform="translate(227.454352, 175.638965)"><g/></g></g><g fill="#f1efe7" fill-opacity="1"><g transform="translate(231.144079, 175.638965)"><g/></g></g><g fill="#f1efe7" fill-opacity="1"><g transform="translate(140.403335, 199.60414)"><g><path d="M 41.90625 -17.644531 L 44.175781 -19.914062 L 41.90625 -22.183594 L 39.636719 -19.914062 Z M 47.082031 -16.300781 L 36.695312 -16.300781 C 35.832031 -16.300781 35.097656 -15.597656 35.097656 -14.703125 L 35.097656 -5.882812 L 44.175781 -5.882812 L 44.175781 -4.539062 L 5.210938 -4.539062 L 5.210938 -5.882812 L 33.753906 -5.882812 L 33.753906 -10.421875 L 2.269531 -10.421875 C 1.375 -10.421875 0.671875 -9.71875 0.671875 -8.820312 L 0.671875 0 L 48.683594 0 L 48.683594 -14.703125 C 48.683594 -15.597656 47.980469 -16.300781 47.082031 -16.300781 Z M 44.175781 -10.421875 L 39.636719 -10.421875 L 39.636719 -11.792969 L 44.175781 -11.792969 Z M 44.175781 -10.421875 "/></g></g></g><g fill="#f1efe7" fill-opacity="1"><g transform="translate(189.754661, 199.60414)"><g><path d="M -2.238281 0 L 4.539062 0 L 4.539062 -4.539062 L -2.238281 -4.539062 Z M -2.238281 0 "/></g></g></g><g fill="#f1efe7" fill-opacity="1"><g transform="translate(194.29345, 199.60414)"><g><path d="M 22.664062 -9.046875 L 22.664062 -4.539062 L -2.238281 -4.539062 L -2.238281 0 L 25.570312 0 C 26.5 0 27.203125 -0.703125 27.203125 -1.628906 L 27.203125 -9.046875 Z M 7.511719 3.613281 L 9.78125 5.882812 L 12.050781 3.613281 L 9.78125 1.34375 Z M 12.945312 3.613281 L 15.214844 5.882812 L 17.484375 3.613281 L 15.214844 1.34375 Z M 12.945312 3.613281 "/></g></g></g><g fill="#f1efe7" fill-opacity="1"><g transform="translate(221.494216, 199.60414)"><g><path d="M -1.789062 -36.246094 L 1.34375 -36.246094 L 1.34375 -4.539062 L -2.238281 -4.539062 L -2.238281 0 L 4.25 0 C 5.144531 0 5.847656 -0.703125 5.847656 -1.597656 L 5.847656 -44.398438 Z M -1.789062 -36.246094 "/></g></g></g><g fill="#f1efe7" fill-opacity="1"><g transform="translate(228.014728, 199.60414)"><g><path d="M 0.671875 -44.398438 L 0.671875 0 L 5.210938 0 L 5.210938 -36.246094 L 8.277344 -36.246094 Z M 0.671875 -44.398438 "/></g></g></g><g fill="#f1efe7" fill-opacity="1"><g transform="translate(233.895979, 199.60414)"><g><path d="M 14.289062 -10.421875 L 2.269531 -10.421875 C 1.375 -10.421875 0.671875 -9.71875 0.671875 -8.820312 L 0.671875 0 L 9.75 0 L 9.75 1.34375 L 0.671875 1.34375 L 0.671875 5.882812 L 12.019531 5.882812 C 13.265625 5.882812 14.289062 4.859375 14.289062 3.613281 Z M 9.75 -4.539062 L 5.210938 -4.539062 L 5.210938 -5.914062 L 9.75 -5.914062 Z M 9.75 -4.539062 "/></g></g></g><g fill="#f1efe7" fill-opacity="1"><g transform="translate(248.183577, 199.60414)"><g><path d="M 13.105469 -10.421875 L 13.105469 -4.539062 L 11.761719 -4.539062 L 11.761719 -10.421875 L 7.222656 -10.421875 L 7.222656 -4.539062 L 5.882812 -4.539062 L 5.882812 -10.421875 L 1.34375 -10.421875 L 1.34375 -4.539062 L -2.238281 -4.539062 L -2.238281 0 L 16.046875 0 C 16.941406 0 17.644531 -0.734375 17.644531 -1.597656 L 17.644531 -10.421875 Z M 13.105469 -10.421875 "/></g></g></g></svg>